<?xml version="1.0" standalone="no"?>
<!DOCTYPE svg PUBLIC "-//W3C//DTD SVG 1.1//EN" "http://www.w3.org/Graphics/SVG/1.1/DTD/svg11.dtd">
<svg version="1.1" width="1200" height="310" onload="init(evt)" viewBox="0 0 1200 310" xmlns="http://www.w3.org/2000/svg" xmlns:xlink="http://www.w3.org/1999/xlink">
<!-- Flame graph stack visualization. See https://github.com/brendangregg/FlameGraph for latest version, and http://www.brendangregg.com/flamegraphs.html for examples. -->
<!-- NOTES:  -->
<defs>
	<linearGradient id="background" y1="0" y2="1" x1="0" x2="0" >
		<stop stop-color="#eeeeee" offset="5%" />
		<stop stop-color="#eeeeb0" offset="95%" />
	</linearGradient>
</defs>
<style type="text/css">
	text { font-family:Verdana; font-size:12px; fill:rgb(0,0,0); }
	#search { opacity:0.1; cursor:pointer; }
	#search:hover, #search.show { opacity:1; }
	#subtitle { text-anchor:middle; font-color:rgb(160,160,160); }
	#title { text-anchor:middle; font-size:17px}
	#unzoom { cursor:pointer; }
	#frames > *:hover { stroke:black; stroke-width:0.5; cursor:pointer; }
	.hide { display:none; }
	.parent { opacity:0.5; }
</style>
<script type="text/ecmascript">
<![CDATA[
	"use strict";
	var details, searchbtn, unzoombtn, matchedtxt, svg, searching;
	function init(evt) {
		details = document.getElementById("details").firstChild;
		searchbtn = document.getElementById("search");
		unzoombtn = document.getElementById("unzoom");
		matchedtxt = document.getElementById("matched");
		svg = document.getElementsByTagName("svg")[0];
		searching = 0;
	}

	window.addEventListener("click", function(e) {
		var target = find_group(e.target);
		if (target) {
			if (target.nodeName == "a") {
				if (e.ctrlKey === false) return;
				e.preventDefault();
			}
			if (target.classList.contains("parent")) unzoom();
			zoom(target);
		}
		else if (e.target.id == "unzoom") unzoom();
		else if (e.target.id == "search") search_prompt();
	}, false)

	// mouse-over for info
	// show
	window.addEventListener("mouseover", function(e) {
		var target = find_group(e.target);
		if (target) details.nodeValue = "Function: " + g_to_text(target);
	}, false)

	// clear
	window.addEventListener("mouseout", function(e) {
		var target = find_group(e.target);
		if (target) details.nodeValue = ' ';
	}, false)

	// ctrl-F for search
	window.addEventListener("keydown",function (e) {
		if (e.keyCode === 114 || (e.ctrlKey && e.keyCode === 70)) {
			e.preventDefault();
			search_prompt();
		}
	}, false)

	// functions
	function find_child(node, selector) {
		var children = node.querySelectorAll(selector);
		if (children.length) return children[0];
		return;
	}
	function find_group(node) {
		var parent = node.parentElement;
		if (!parent) return;
		if (parent.id == "frames") return node;
		return find_group(parent);
	}
	function orig_save(e, attr, val) {
		if (e.attributes["_orig_" + attr] != undefined) return;
		if (e.attributes[attr] == undefined) return;
		if (val == undefined) val = e.attributes[attr].value;
		e.setAttribute("_orig_" + attr, val);
	}
	function orig_load(e, attr) {
		if (e.attributes["_orig_"+attr] == undefined) return;
		e.attributes[attr].value = e.attributes["_orig_" + attr].value;
		e.removeAttribute("_orig_"+attr);
	}
	function g_to_text(e) {
		var text = find_child(e, "title").firstChild.nodeValue;
		return (text)
	}
	function g_to_func(e) {
		var func = g_to_text(e);
		// if there's any manipulation we want to do to the function
		// name before it's searched, do it here before returning.
		return (func);
	}
	function update_text(e) {
		var r = find_child(e, "rect");
		var t = find_child(e, "text");
		var w = parseFloat(r.attributes.width.value) -3;
		var txt = find_child(e, "title").textContent.replace(/\([^(]*\)$/,"");
		t.attributes.x.value = parseFloat(r.attributes.x.value) + 3;

		// Smaller than this size won't fit anything
		if (w < 2 * 12 * 0.59) {
			t.textContent = "";
			return;
		}

		t.textContent = txt;
		// Fit in full text width
		if (/^ *$/.test(txt) || t.getSubStringLength(0, txt.length) < w)
			return;

		for (var x = txt.length - 2; x > 0; x--) {
			if (t.getSubStringLength(0, x + 2) <= w) {
				t.textContent = txt.substring(0, x) + "..";
				return;
			}
		}
		t.textContent = "";
	}

	// zoom
	function zoom_reset(e) {
		if (e.attributes != undefined) {
			orig_load(e, "x");
			orig_load(e, "width");
		}
		if (e.childNodes == undefined) return;
		for (var i = 0, c = e.childNodes; i < c.length; i++) {
			zoom_reset(c[i]);
		}
	}
	function zoom_child(e, x, ratio) {
		if (e.attributes != undefined) {
			if (e.attributes.x != undefined) {
				orig_save(e, "x");
				e.attributes.x.value = (parseFloat(e.attributes.x.value) - x - 10) * ratio + 10;
				if (e.tagName == "text")
					e.attributes.x.value = find_child(e.parentNode, "rect[x]").attributes.x.value + 3;
			}
			if (e.attributes.width != undefined) {
				orig_save(e, "width");
				e.attributes.width.value = parseFloat(e.attributes.width.value) * ratio;
			}
		}

		if (e.childNodes == undefined) return;
		for (var i = 0, c = e.childNodes; i < c.length; i++) {
			zoom_child(c[i], x - 10, ratio);
		}
	}
	function zoom_parent(e) {
		if (e.attributes) {
			if (e.attributes.x != undefined) {
				orig_save(e, "x");
				e.attributes.x.value = 10;
			}
			if (e.attributes.width != undefined) {
				orig_save(e, "width");
				e.attributes.width.value = parseInt(svg.width.baseVal.value) - (10 * 2);
			}
		}
		if (e.childNodes == undefined) return;
		for (var i = 0, c = e.childNodes; i < c.length; i++) {
			zoom_parent(c[i]);
		}
	}
	function zoom(node) {
		var attr = find_child(node, "rect").attributes;
		var width = parseFloat(attr.width.value);
		var xmin = parseFloat(attr.x.value);
		var xmax = parseFloat(xmin + width);
		var ymin = parseFloat(attr.y.value);
		var ratio = (svg.width.baseVal.value - 2 * 10) / width;

		// XXX: Workaround for JavaScript float issues (fix me)
		var fudge = 0.0001;

		unzoombtn.classList.remove("hide");

		var el = document.getElementById("frames").children;
		for (var i = 0; i < el.length; i++) {
			var e = el[i];
			var a = find_child(e, "rect").attributes;
			var ex = parseFloat(a.x.value);
			var ew = parseFloat(a.width.value);
			var upstack;
			// Is it an ancestor
			if (0 == 0) {
				upstack = parseFloat(a.y.value) > ymin;
			} else {
				upstack = parseFloat(a.y.value) < ymin;
			}
			if (upstack) {
				// Direct ancestor
				if (ex <= xmin && (ex+ew+fudge) >= xmax) {
					e.classList.add("parent");
					zoom_parent(e);
					update_text(e);
				}
				// not in current path
				else
					e.classList.add("hide");
			}
			// Children maybe
			else {
				// no common path
				if (ex < xmin || ex + fudge >= xmax) {
					e.classList.add("hide");
				}
				else {
					zoom_child(e, xmin, ratio);
					update_text(e);
				}
			}
		}
	}
	function unzoom() {
		unzoombtn.classList.add("hide");
		var el = document.getElementById("frames").children;
		for(var i = 0; i < el.length; i++) {
			el[i].classList.remove("parent");
			el[i].classList.remove("hide");
			zoom_reset(el[i]);
			update_text(el[i]);
		}
	}

	// search
	function reset_search() {
		var el = document.querySelectorAll("#frames rect");
		for (var i = 0; i < el.length; i++) {
			orig_load(el[i], "fill")
		}
	}
	function search_prompt() {
		if (!searching) {
			var term = prompt("Enter a search term (regexp " +
			    "allowed, eg: ^ext4_)", "");
			if (term != null) {
				search(term)
			}
		} else {
			reset_search();
			searching = 0;
			searchbtn.classList.remove("show");
			searchbtn.firstChild.nodeValue = "Search"
			matchedtxt.classList.add("hide");
			matchedtxt.firstChild.nodeValue = ""
		}
	}
	function search(term) {
		var re = new RegExp(term);
		var el = document.getElementById("frames").children;
		var matches = new Object();
		var maxwidth = 0;
		for (var i = 0; i < el.length; i++) {
			var e = el[i];
			var func = g_to_func(e);
			var rect = find_child(e, "rect");
			if (func == null || rect == null)
				continue;

			// Save max width. Only works as we have a root frame
			var w = parseFloat(rect.attributes.width.value);
			if (w > maxwidth)
				maxwidth = w;

			if (func.match(re)) {
				// highlight
				var x = parseFloat(rect.attributes.x.value);
				orig_save(rect, "fill");
				rect.attributes.fill.value = "rgb(230,0,230)";

				// remember matches
				if (matches[x] == undefined) {
					matches[x] = w;
				} else {
					if (w > matches[x]) {
						// overwrite with parent
						matches[x] = w;
					}
				}
				searching = 1;
			}
		}
		if (!searching)
			return;

		searchbtn.classList.add("show");
		searchbtn.firstChild.nodeValue = "Reset Search";

		// calculate percent matched, excluding vertical overlap
		var count = 0;
		var lastx = -1;
		var lastw = 0;
		var keys = Array();
		for (k in matches) {
			if (matches.hasOwnProperty(k))
				keys.push(k);
		}
		// sort the matched frames by their x location
		// ascending, then width descending
		keys.sort(function(a, b){
			return a - b;
		});
		// Step through frames saving only the biggest bottom-up frames
		// thanks to the sort order. This relies on the tree property
		// where children are always smaller than their parents.
		var fudge = 0.0001;	// JavaScript floating point
		for (var k in keys) {
			var x = parseFloat(keys[k]);
			var w = matches[keys[k]];
			if (x >= lastx + lastw - fudge) {
				count += w;
				lastx = x;
				lastw = w;
			}
		}
		// display matched percent
		matchedtxt.classList.remove("hide");
		var pct = 100 * count / maxwidth;
		if (pct != 100) pct = pct.toFixed(1)
		matchedtxt.firstChild.nodeValue = "Matched: " + pct + "%";
	}
]]>
</script>
<rect x="0.0" y="0" width="1200.0" height="310.0" fill="url(#background)"  />
<text id="title" x="600.00" y="24" >Flame Graph</text>
<text id="details" x="10.00" y="293" > </text>
<text id="unzoom" x="10.00" y="24" class="hide">Reset Zoom</text>
<text id="search" x="1090.00" y="24" >Search</text>
<text id="matched" x="1090.00" y="293" > </text>
<g id="frames">
<g >
<title>runtime.exitsyscallfast_pidle (114 samples, 18.69%)</title><rect x="534.2" y="149" width="220.6" height="15.0" fill="rgb(224,126,6)" rx="2" ry="2" />
<text  x="537.23" y="159.5" >runtime.exitsyscallfast_pidle</text>
</g>
<g >
<title>go.lixinio.com/dos/trace-subscriber/vendor/go.opencensus.io/trace.spanStoreForNameCreateIfNew (1 samples, 0.16%)</title><rect x="10.0" y="117" width="1.9" height="15.0" fill="rgb(232,53,40)" rx="2" ry="2" />
<text  x="13.00" y="127.5" ></text>
</g>
<g >
<title>runtime.sysmon (1 samples, 0.16%)</title><rect x="425.9" y="245" width="1.9" height="15.0" fill="rgb(205,0,44)" rx="2" ry="2" />
<text  x="428.90" y="255.5" ></text>
</g>
<g >
<title>runtime.futex (71 samples, 11.64%)</title><rect x="603.9" y="101" width="137.3" height="15.0" fill="rgb(251,196,0)" rx="2" ry="2" />
<text  x="606.87" y="111.5" >runtime.futex</text>
</g>
<g >
<title>runtime.siftdownTimer (23 samples, 3.77%)</title><rect x="1093.3" y="229" width="44.5" height="15.0" fill="rgb(240,50,5)" rx="2" ry="2" />
<text  x="1096.28" y="239.5" >runt..</text>
</g>
<g >
<title>runtime.(*timespec).set_sec (1 samples, 0.16%)</title><rect x="785.7" y="181" width="1.9" height="15.0" fill="rgb(229,160,48)" rx="2" ry="2" />
<text  x="788.70" y="191.5" ></text>
</g>
<g >
<title>runtime.findObject (1 samples, 0.16%)</title><rect x="44.8" y="53" width="2.0" height="15.0" fill="rgb(233,169,11)" rx="2" ry="2" />
<text  x="47.82" y="63.5" ></text>
</g>
<g >
<title>runtime.runqsteal (1 samples, 0.16%)</title><rect x="52.6" y="181" width="1.9" height="15.0" fill="rgb(226,216,19)" rx="2" ry="2" />
<text  x="55.56" y="191.5" ></text>
</g>
<g >
<title>fmt.(*pp).doPrint (1 samples, 0.16%)</title><rect x="13.9" y="117" width="1.9" height="15.0" fill="rgb(207,113,51)" rx="2" ry="2" />
<text  x="16.87" y="127.5" ></text>
</g>
<g >
<title>memeqbody (1 samples, 0.16%)</title><rect x="21.6" y="53" width="1.9" height="15.0" fill="rgb(217,90,27)" rx="2" ry="2" />
<text  x="24.61" y="63.5" ></text>
</g>
<g >
<title>go.lixinio.com/dos/trace-subscriber/vendor/gocloud.dev/internal/retry.Call (9 samples, 1.48%)</title><rect x="10.0" y="213" width="17.4" height="15.0" fill="rgb(223,10,21)" rx="2" ry="2" />
<text  x="13.00" y="223.5" ></text>
</g>
<g >
<title>time.Time.Add (1 samples, 0.16%)</title><rect x="23.5" y="69" width="2.0" height="15.0" fill="rgb(219,210,14)" rx="2" ry="2" />
<text  x="26.54" y="79.5" ></text>
</g>
<g >
<title>go.lixinio.com/dos/trace-subscriber/vendor/go.opencensus.io/internal.MonotonicEndTime (1 samples, 0.16%)</title><rect x="23.5" y="85" width="2.0" height="15.0" fill="rgb(226,159,9)" rx="2" ry="2" />
<text  x="26.54" y="95.5" ></text>
</g>
<g >
<title>runtime.nanotime (3 samples, 0.49%)</title><rect x="1087.5" y="197" width="5.8" height="15.0" fill="rgb(226,132,36)" rx="2" ry="2" />
<text  x="1090.48" y="207.5" ></text>
</g>
<g >
<title>runtime.entersyscallblock (21 samples, 3.44%)</title><rect x="476.2" y="213" width="40.6" height="15.0" fill="rgb(238,80,48)" rx="2" ry="2" />
<text  x="479.20" y="223.5" >run..</text>
</g>
<g >
<title>context.(*valueCtx).Value (1 samples, 0.16%)</title><rect x="11.9" y="133" width="2.0" height="15.0" fill="rgb(222,135,8)" rx="2" ry="2" />
<text  x="14.93" y="143.5" ></text>
</g>
<g >
<title>runtime.typedmemmove (1 samples, 0.16%)</title><rect x="1164.9" y="181" width="1.9" height="15.0" fill="rgb(251,43,35)" rx="2" ry="2" />
<text  x="1167.85" y="191.5" ></text>
</g>
<g >
<title>runtime.notewakeup (72 samples, 11.80%)</title><rect x="601.9" y="133" width="139.3" height="15.0" fill="rgb(208,77,8)" rx="2" ry="2" />
<text  x="604.93" y="143.5" >runtime.notewakeup</text>
</g>
<g >
<title>time.now (1 samples, 0.16%)</title><rect x="1174.5" y="197" width="2.0" height="15.0" fill="rgb(241,111,9)" rx="2" ry="2" />
<text  x="1177.52" y="207.5" ></text>
</g>
<g >
<title>runtime.markroot.func1 (1 samples, 0.16%)</title><rect x="44.8" y="165" width="2.0" height="15.0" fill="rgb(232,15,44)" rx="2" ry="2" />
<text  x="47.82" y="175.5" ></text>
</g>
<g >
<title>runtime.(*timespec).set_sec (1 samples, 0.16%)</title><rect x="106.7" y="149" width="2.0" height="15.0" fill="rgb(254,2,29)" rx="2" ry="2" />
<text  x="109.72" y="159.5" ></text>
</g>
<g >
<title>runtime.lock (3 samples, 0.49%)</title><rect x="466.5" y="229" width="5.8" height="15.0" fill="rgb(243,69,49)" rx="2" ry="2" />
<text  x="469.52" y="239.5" ></text>
</g>
<g >
<title>runtime.getStackMap (1 samples, 0.16%)</title><rect x="70.0" y="165" width="1.9" height="15.0" fill="rgb(211,187,27)" rx="2" ry="2" />
<text  x="72.97" y="175.5" ></text>
</g>
<g >
<title>runtime.exitsyscallfast.func1 (114 samples, 18.69%)</title><rect x="534.2" y="165" width="220.6" height="15.0" fill="rgb(232,154,9)" rx="2" ry="2" />
<text  x="537.23" y="175.5" >runtime.exitsyscallfast.func1</text>
</g>
<g >
<title>runtime.mcall (9 samples, 1.48%)</title><rect x="48.7" y="245" width="17.4" height="15.0" fill="rgb(227,58,18)" rx="2" ry="2" />
<text  x="51.69" y="255.5" ></text>
</g>
<g >
<title>go.lixinio.com/dos/trace-subscriber/vendor/go.opencensus.io/trace.StartSpan (1 samples, 0.16%)</title><rect x="10.0" y="149" width="1.9" height="15.0" fill="rgb(212,152,39)" rx="2" ry="2" />
<text  x="13.00" y="159.5" ></text>
</g>
<g >
<title>runtime.entersyscallblock_handoff (18 samples, 2.95%)</title><rect x="482.0" y="181" width="34.8" height="15.0" fill="rgb(234,171,32)" rx="2" ry="2" />
<text  x="485.00" y="191.5" >ru..</text>
</g>
<g >
<title>runtime.slicebytetostring (1 samples, 0.16%)</title><rect x="15.8" y="117" width="1.9" height="15.0" fill="rgb(254,135,15)" rx="2" ry="2" />
<text  x="18.80" y="127.5" ></text>
</g>
<g >
<title>go.lixinio.com/dos/trace-subscriber/pkg/census.InitTracing.func1 (1 samples, 0.16%)</title><rect x="21.6" y="69" width="1.9" height="15.0" fill="rgb(238,15,25)" rx="2" ry="2" />
<text  x="24.61" y="79.5" ></text>
</g>
<g >
<title>runtime.pidleput (2 samples, 0.33%)</title><rect x="495.5" y="149" width="3.9" height="15.0" fill="rgb(237,185,26)" rx="2" ry="2" />
<text  x="498.54" y="159.5" ></text>
</g>
<g >
<title>go.lixinio.com/dos/trace-subscriber/vendor/go.opencensus.io/trace.(*Span).End (2 samples, 0.33%)</title><rect x="21.6" y="133" width="3.9" height="15.0" fill="rgb(252,40,24)" rx="2" ry="2" />
<text  x="24.61" y="143.5" ></text>
</g>
<g >
<title>runtime.pidleget (5 samples, 0.82%)</title><rect x="741.2" y="133" width="9.7" height="15.0" fill="rgb(210,183,14)" rx="2" ry="2" />
<text  x="744.21" y="143.5" ></text>
</g>
<g >
<title>runtime.procyield (22 samples, 3.61%)</title><rect x="559.4" y="117" width="42.5" height="15.0" fill="rgb(211,10,46)" rx="2" ry="2" />
<text  x="562.38" y="127.5" >runt..</text>
</g>
<g >
<title>runtime.scanobject (1 samples, 0.16%)</title><rect x="46.8" y="181" width="1.9" height="15.0" fill="rgb(243,201,26)" rx="2" ry="2" />
<text  x="49.75" y="191.5" ></text>
</g>
<g >
<title>runtime.gcBgMarkWorker.func2 (2 samples, 0.33%)</title><rect x="44.8" y="213" width="3.9" height="15.0" fill="rgb(222,32,25)" rx="2" ry="2" />
<text  x="47.82" y="223.5" ></text>
</g>
<g >
<title>runtime.findObject (1 samples, 0.16%)</title><rect x="46.8" y="165" width="1.9" height="15.0" fill="rgb(233,216,14)" rx="2" ry="2" />
<text  x="49.75" y="175.5" ></text>
</g>
<g >
<title>runtime.systemstack (9 samples, 1.48%)</title><rect x="27.4" y="229" width="17.4" height="15.0" fill="rgb(223,185,52)" rx="2" ry="2" />
<text  x="30.41" y="239.5" ></text>
</g>
<g >
<title>runtime.futexwakeup (1 samples, 0.16%)</title><rect x="511.0" y="117" width="2.0" height="15.0" fill="rgb(253,171,4)" rx="2" ry="2" />
<text  x="514.02" y="127.5" ></text>
</g>
<g >
<title>runtime.scanframeworker (1 samples, 0.16%)</title><rect x="44.8" y="85" width="2.0" height="15.0" fill="rgb(227,221,19)" rx="2" ry="2" />
<text  x="47.82" y="95.5" ></text>
</g>
<g >
<title>runtime.memmove (1 samples, 0.16%)</title><rect x="1164.9" y="165" width="1.9" height="15.0" fill="rgb(228,26,23)" rx="2" ry="2" />
<text  x="1167.85" y="175.5" ></text>
</g>
<g >
<title>runtime.startm (2 samples, 0.33%)</title><rect x="509.1" y="149" width="3.9" height="15.0" fill="rgb(240,86,54)" rx="2" ry="2" />
<text  x="512.08" y="159.5" ></text>
</g>
<g >
<title>runtime.scanstack (1 samples, 0.16%)</title><rect x="44.8" y="133" width="2.0" height="15.0" fill="rgb(243,221,1)" rx="2" ry="2" />
<text  x="47.82" y="143.5" ></text>
</g>
<g >
<title>runtime.mstart1 (173 samples, 28.36%)</title><rect x="73.8" y="229" width="334.7" height="15.0" fill="rgb(222,114,20)" rx="2" ry="2" />
<text  x="76.84" y="239.5" >runtime.mstart1</text>
</g>
<g >
<title>runtime.morestack (4 samples, 0.66%)</title><rect x="66.1" y="245" width="7.7" height="15.0" fill="rgb(254,205,43)" rx="2" ry="2" />
<text  x="69.10" y="255.5" ></text>
</g>
<g >
<title>go.lixinio.com/dos/trace-subscriber/vendor/go.opencensus.io/stats.RecordWithTags (2 samples, 0.33%)</title><rect x="17.7" y="133" width="3.9" height="15.0" fill="rgb(211,174,12)" rx="2" ry="2" />
<text  x="20.74" y="143.5" ></text>
</g>
<g >
<title>runtime.spanOf (1 samples, 0.16%)</title><rect x="44.8" y="37" width="2.0" height="15.0" fill="rgb(254,108,11)" rx="2" ry="2" />
<text  x="47.82" y="47.5" ></text>
</g>
<g >
<title>runtime.gentraceback (1 samples, 0.16%)</title><rect x="44.8" y="117" width="2.0" height="15.0" fill="rgb(254,160,23)" rx="2" ry="2" />
<text  x="47.82" y="127.5" ></text>
</g>
<g >
<title>runtime.(*puintptr).set (1 samples, 0.16%)</title><rect x="545.8" y="101" width="2.0" height="15.0" fill="rgb(237,115,15)" rx="2" ry="2" />
<text  x="548.84" y="111.5" ></text>
</g>
<g >
<title>runtime.futex (155 samples, 25.41%)</title><rect x="787.6" y="181" width="299.9" height="15.0" fill="rgb(228,94,49)" rx="2" ry="2" />
<text  x="790.64" y="191.5" >runtime.futex</text>
</g>
<g >
<title>runtime.exitsyscallfast (115 samples, 18.85%)</title><rect x="532.3" y="197" width="222.5" height="15.0" fill="rgb(224,216,38)" rx="2" ry="2" />
<text  x="535.30" y="207.5" >runtime.exitsyscallfast</text>
</g>
<g >
<title>runtime.gentraceback (2 samples, 0.33%)</title><rect x="68.0" y="197" width="3.9" height="15.0" fill="rgb(212,228,53)" rx="2" ry="2" />
<text  x="71.03" y="207.5" ></text>
</g>
<g >
<title>runtime.pcvalue (1 samples, 0.16%)</title><rect x="70.0" y="133" width="1.9" height="15.0" fill="rgb(213,54,35)" rx="2" ry="2" />
<text  x="72.97" y="143.5" ></text>
</g>
<g >
<title>runtime.mget (1 samples, 0.16%)</title><rect x="509.1" y="133" width="1.9" height="15.0" fill="rgb(209,93,22)" rx="2" ry="2" />
<text  x="512.08" y="143.5" ></text>
</g>
<g >
<title>runtime.notetsleep_internal (174 samples, 28.52%)</title><rect x="756.7" y="213" width="336.6" height="15.0" fill="rgb(229,10,54)" rx="2" ry="2" />
<text  x="759.69" y="223.5" >runtime.notetsleep_internal</text>
</g>
<g >
<title>runtime.runqget (1 samples, 0.16%)</title><rect x="71.9" y="165" width="1.9" height="15.0" fill="rgb(236,112,48)" rx="2" ry="2" />
<text  x="74.90" y="175.5" ></text>
</g>
<g >
<title>runtime.futexwakeup (71 samples, 11.64%)</title><rect x="603.9" y="117" width="137.3" height="15.0" fill="rgb(246,26,23)" rx="2" ry="2" />
<text  x="606.87" y="127.5" >runtime.futexwakeup</text>
</g>
<g >
<title>runtime.selectnbsend (8 samples, 1.31%)</title><rect x="1151.3" y="213" width="15.5" height="15.0" fill="rgb(205,85,44)" rx="2" ry="2" />
<text  x="1154.31" y="223.5" ></text>
</g>
<g >
<title>runtime._System (9 samples, 1.48%)</title><rect x="27.4" y="245" width="17.4" height="15.0" fill="rgb(224,51,43)" rx="2" ry="2" />
<text  x="30.41" y="255.5" ></text>
</g>
<g >
<title>runtime.exitsyscall (124 samples, 20.33%)</title><rect x="516.8" y="213" width="239.9" height="15.0" fill="rgb(231,109,2)" rx="2" ry="2" />
<text  x="519.82" y="223.5" >runtime.exitsyscall</text>
</g>
<g >
<title>runtime.timerproc (387 samples, 63.44%)</title><rect x="427.8" y="245" width="748.7" height="15.0" fill="rgb(221,120,19)" rx="2" ry="2" />
<text  x="430.84" y="255.5" >runtime.timerproc</text>
</g>
<g >
<title>runtime.schedule (9 samples, 1.48%)</title><rect x="48.7" y="213" width="17.4" height="15.0" fill="rgb(249,192,11)" rx="2" ry="2" />
<text  x="51.69" y="223.5" ></text>
</g>
<g >
<title>go.lixinio.com/dos/trace-subscriber/vendor/gocloud.dev/pubsub.(*Subscription).getNextBatch.func1.1.1 (7 samples, 1.15%)</title><rect x="11.9" y="165" width="13.6" height="15.0" fill="rgb(235,223,27)" rx="2" ry="2" />
<text  x="14.93" y="175.5" ></text>
</g>
<g >
<title>go.lixinio.com/dos/trace-subscriber/vendor/gocloud.dev/internal/retry.call (9 samples, 1.48%)</title><rect x="10.0" y="197" width="17.4" height="15.0" fill="rgb(235,114,29)" rx="2" ry="2" />
<text  x="13.00" y="207.5" ></text>
</g>
<g >
<title>runtime.deferproc (1 samples, 0.16%)</title><rect x="13.9" y="69" width="1.9" height="15.0" fill="rgb(219,75,3)" rx="2" ry="2" />
<text  x="16.87" y="79.5" ></text>
</g>
<g >
<title>runtime.notewakeup (1 samples, 0.16%)</title><rect x="511.0" y="133" width="2.0" height="15.0" fill="rgb(224,111,51)" rx="2" ry="2" />
<text  x="514.02" y="143.5" ></text>
</g>
<g >
<title>runtime.memmove (1 samples, 0.16%)</title><rect x="15.8" y="101" width="1.9" height="15.0" fill="rgb(209,115,35)" rx="2" ry="2" />
<text  x="18.80" y="111.5" ></text>
</g>
<g >
<title>runtime.notetsleepg (321 samples, 52.62%)</title><rect x="472.3" y="229" width="621.0" height="15.0" fill="rgb(231,204,33)" rx="2" ry="2" />
<text  x="475.33" y="239.5" >runtime.notetsleepg</text>
</g>
<g >
<title>fmt.(*pp).handleMethods (1 samples, 0.16%)</title><rect x="13.9" y="85" width="1.9" height="15.0" fill="rgb(205,112,23)" rx="2" ry="2" />
<text  x="16.87" y="95.5" ></text>
</g>
<g >
<title>runtime.save (1 samples, 0.16%)</title><rect x="480.1" y="197" width="1.9" height="15.0" fill="rgb(228,155,21)" rx="2" ry="2" />
<text  x="483.07" y="207.5" ></text>
</g>
<g >
<title>sync.(*Once).Do (2 samples, 0.33%)</title><rect x="21.6" y="117" width="3.9" height="15.0" fill="rgb(238,11,6)" rx="2" ry="2" />
<text  x="24.61" y="127.5" ></text>
</g>
<g >
<title>go.lixinio.com/dos/trace-subscriber/vendor/gocloud.dev/internal/oc.(*Tracer).End (7 samples, 1.15%)</title><rect x="11.9" y="149" width="13.6" height="15.0" fill="rgb(214,203,8)" rx="2" ry="2" />
<text  x="14.93" y="159.5" ></text>
</g>
<g >
<title>runtime.systemstack (114 samples, 18.69%)</title><rect x="534.2" y="181" width="220.6" height="15.0" fill="rgb(213,112,18)" rx="2" ry="2" />
<text  x="537.23" y="191.5" >runtime.systemstack</text>
</g>
<g >
<title>runtime.chansend (6 samples, 0.98%)</title><rect x="1155.2" y="197" width="11.6" height="15.0" fill="rgb(229,156,40)" rx="2" ry="2" />
<text  x="1158.18" y="207.5" ></text>
</g>
<g >
<title>runtime.lock (28 samples, 4.59%)</title><rect x="547.8" y="133" width="54.1" height="15.0" fill="rgb(222,180,11)" rx="2" ry="2" />
<text  x="550.77" y="143.5" >runti..</text>
</g>
<g >
<title>runtime.notetsleep_internal (88 samples, 14.43%)</title><rect x="102.9" y="181" width="170.2" height="15.0" fill="rgb(235,58,32)" rx="2" ry="2" />
<text  x="105.85" y="191.5" >runtime.notetsleep_int..</text>
</g>
<g >
<title>runtime.goschedImpl (1 samples, 0.16%)</title><rect x="71.9" y="197" width="1.9" height="15.0" fill="rgb(237,187,43)" rx="2" ry="2" />
<text  x="74.90" y="207.5" ></text>
</g>
<g >
<title>runtime.pcdatavalue (1 samples, 0.16%)</title><rect x="70.0" y="149" width="1.9" height="15.0" fill="rgb(217,3,8)" rx="2" ry="2" />
<text  x="72.97" y="159.5" ></text>
</g>
<g >
<title>runtime.scang (1 samples, 0.16%)</title><rect x="44.8" y="149" width="2.0" height="15.0" fill="rgb(236,143,18)" rx="2" ry="2" />
<text  x="47.82" y="159.5" ></text>
</g>
<g >
<title>go.lixinio.com/dos/trace-subscriber/vendor/go.opencensus.io/tag.isASCII (1 samples, 0.16%)</title><rect x="19.7" y="85" width="1.9" height="15.0" fill="rgb(238,207,40)" rx="2" ry="2" />
<text  x="22.67" y="95.5" ></text>
</g>
<g >
<title>runtime.deferclass (1 samples, 0.16%)</title><rect x="13.9" y="37" width="1.9" height="15.0" fill="rgb(254,199,40)" rx="2" ry="2" />
<text  x="16.87" y="47.5" ></text>
</g>
<g >
<title>runtime.newdefer (1 samples, 0.16%)</title><rect x="13.9" y="53" width="1.9" height="15.0" fill="rgb(224,153,5)" rx="2" ry="2" />
<text  x="16.87" y="63.5" ></text>
</g>
<g >
<title>runtime.systemstack (2 samples, 0.33%)</title><rect x="44.8" y="229" width="3.9" height="15.0" fill="rgb(216,88,47)" rx="2" ry="2" />
<text  x="47.82" y="239.5" ></text>
</g>
<g >
<title>runtime.markroot (1 samples, 0.16%)</title><rect x="44.8" y="181" width="2.0" height="15.0" fill="rgb(215,1,9)" rx="2" ry="2" />
<text  x="47.82" y="191.5" ></text>
</g>
<g >
<title>runtime.newstack (4 samples, 0.66%)</title><rect x="66.1" y="229" width="7.7" height="15.0" fill="rgb(246,178,4)" rx="2" ry="2" />
<text  x="69.10" y="239.5" ></text>
</g>
<g >
<title>runtime.handoffp (16 samples, 2.62%)</title><rect x="482.0" y="165" width="31.0" height="15.0" fill="rgb(235,19,7)" rx="2" ry="2" />
<text  x="485.00" y="175.5" >ru..</text>
</g>
<g >
<title>runtime.acquirep1 (1 samples, 0.16%)</title><rect x="54.5" y="149" width="1.9" height="15.0" fill="rgb(211,136,10)" rx="2" ry="2" />
<text  x="57.49" y="159.5" ></text>
</g>
<g >
<title>all (610 samples, 100%)</title><rect x="10.0" y="261" width="1180.0" height="15.0" fill="rgb(228,155,25)" rx="2" ry="2" />
<text  x="13.00" y="271.5" ></text>
</g>
<g >
<title>runtime.lock (3 samples, 0.49%)</title><rect x="489.7" y="149" width="5.8" height="15.0" fill="rgb(217,49,53)" rx="2" ry="2" />
<text  x="492.74" y="159.5" ></text>
</g>
<g >
<title>runtime.acquirep (7 samples, 1.15%)</title><rect x="534.2" y="133" width="13.6" height="15.0" fill="rgb(208,136,1)" rx="2" ry="2" />
<text  x="537.23" y="143.5" ></text>
</g>
<g >
<title>runtime.unlock (2 samples, 0.33%)</title><rect x="750.9" y="133" width="3.9" height="15.0" fill="rgb(228,144,44)" rx="2" ry="2" />
<text  x="753.89" y="143.5" ></text>
</g>
<g >
<title>runtime.puintptr.ptr (1 samples, 0.16%)</title><rect x="754.8" y="197" width="1.9" height="15.0" fill="rgb(229,76,15)" rx="2" ry="2" />
<text  x="757.75" y="207.5" ></text>
</g>
<g >
<title>runtime.futexsleep (161 samples, 26.39%)</title><rect x="776.0" y="197" width="311.5" height="15.0" fill="rgb(252,219,26)" rx="2" ry="2" />
<text  x="779.03" y="207.5" >runtime.futexsleep</text>
</g>
<g >
<title>runtime.stopm (6 samples, 0.98%)</title><rect x="54.5" y="181" width="11.6" height="15.0" fill="rgb(237,127,46)" rx="2" ry="2" />
<text  x="57.49" y="191.5" ></text>
</g>
<g >
<title>runtime.sysmon (173 samples, 28.36%)</title><rect x="73.8" y="213" width="334.7" height="15.0" fill="rgb(246,95,5)" rx="2" ry="2" />
<text  x="76.84" y="223.5" >runtime.sysmon</text>
</g>
<g >
<title>runtime.runqempty (5 samples, 0.82%)</title><rect x="499.4" y="149" width="9.7" height="15.0" fill="rgb(235,52,29)" rx="2" ry="2" />
<text  x="502.41" y="159.5" ></text>
</g>
<g >
<title>runtime.futex (84 samples, 13.77%)</title><rect x="108.7" y="149" width="162.4" height="15.0" fill="rgb(208,196,47)" rx="2" ry="2" />
<text  x="111.66" y="159.5" >runtime.futex</text>
</g>
<g >
<title>runtime.systemstack (18 samples, 2.95%)</title><rect x="482.0" y="197" width="34.8" height="15.0" fill="rgb(224,21,3)" rx="2" ry="2" />
<text  x="485.00" y="207.5" >ru..</text>
</g>
<g >
<title>runtime.gcDrain (2 samples, 0.33%)</title><rect x="44.8" y="197" width="3.9" height="15.0" fill="rgb(217,109,37)" rx="2" ry="2" />
<text  x="47.82" y="207.5" ></text>
</g>
<g >
<title>runtime.releasep (2 samples, 0.33%)</title><rect x="513.0" y="165" width="3.8" height="15.0" fill="rgb(223,65,33)" rx="2" ry="2" />
<text  x="515.95" y="175.5" ></text>
</g>
<g >
<title>go.lixinio.com/dos/trace-subscriber/vendor/go.opencensus.io/trace.(*Span).End.func1 (2 samples, 0.33%)</title><rect x="21.6" y="101" width="3.9" height="15.0" fill="rgb(216,193,17)" rx="2" ry="2" />
<text  x="24.61" y="111.5" ></text>
</g>
<g >
<title>runtime.scanstack.func1 (1 samples, 0.16%)</title><rect x="44.8" y="101" width="2.0" height="15.0" fill="rgb(221,169,9)" rx="2" ry="2" />
<text  x="47.82" y="111.5" ></text>
</g>
<g >
<title>go.lixinio.com/dos/trace-subscriber/vendor/go.opencensus.io/tag.New (1 samples, 0.16%)</title><rect x="19.7" y="117" width="1.9" height="15.0" fill="rgb(242,178,17)" rx="2" ry="2" />
<text  x="22.67" y="127.5" ></text>
</g>
<g >
<title>runtime.gcBgMarkWorker (2 samples, 0.33%)</title><rect x="44.8" y="245" width="3.9" height="15.0" fill="rgb(219,3,29)" rx="2" ry="2" />
<text  x="47.82" y="255.5" ></text>
</g>
<g >
<title>go.lixinio.com/dos/trace-subscriber/vendor/go.opencensus.io/trace.startSpanInternal (1 samples, 0.16%)</title><rect x="10.0" y="133" width="1.9" height="15.0" fill="rgb(239,47,5)" rx="2" ry="2" />
<text  x="13.00" y="143.5" ></text>
</g>
<g >
<title>runtime.futex (1 samples, 0.16%)</title><rect x="752.8" y="101" width="2.0" height="15.0" fill="rgb(239,113,8)" rx="2" ry="2" />
<text  x="755.82" y="111.5" ></text>
</g>
<g >
<title>runtime.futexsleep (86 samples, 14.10%)</title><rect x="104.8" y="165" width="166.3" height="15.0" fill="rgb(251,101,15)" rx="2" ry="2" />
<text  x="107.79" y="175.5" >runtime.futexsleep</text>
</g>
<g >
<title>go.lixinio.com/dos/trace-subscriber/pkg/census.(*TraceExporter).ExportSpan (1 samples, 0.16%)</title><rect x="21.6" y="85" width="1.9" height="15.0" fill="rgb(254,74,41)" rx="2" ry="2" />
<text  x="24.61" y="95.5" ></text>
</g>
<g >
<title>go.lixinio.com/dos/trace-subscriber/vendor/gocloud.dev/pubsub/rabbitpubsub.(*subscription).ReceiveBatch (1 samples, 0.16%)</title><rect x="25.5" y="165" width="1.9" height="15.0" fill="rgb(213,109,17)" rx="2" ry="2" />
<text  x="28.48" y="175.5" ></text>
</g>
<g >
<title>go.lixinio.com/dos/trace-subscriber/vendor/gocloud.dev/pubsub.(*Subscription).getNextBatch.func1.1 (9 samples, 1.48%)</title><rect x="10.0" y="181" width="17.4" height="15.0" fill="rgb(243,174,18)" rx="2" ry="2" />
<text  x="13.00" y="191.5" ></text>
</g>
<g >
<title>runtime.schedule (1 samples, 0.16%)</title><rect x="71.9" y="181" width="1.9" height="15.0" fill="rgb(249,123,25)" rx="2" ry="2" />
<text  x="74.90" y="191.5" ></text>
</g>
<g >
<title>runtime.futex (1 samples, 0.16%)</title><rect x="511.0" y="101" width="2.0" height="15.0" fill="rgb(254,46,5)" rx="2" ry="2" />
<text  x="514.02" y="111.5" ></text>
</g>
<g >
<title>runtime.gcTrigger.test (1 samples, 0.16%)</title><rect x="91.2" y="197" width="2.0" height="15.0" fill="rgb(206,138,26)" rx="2" ry="2" />
<text  x="94.25" y="207.5" ></text>
</g>
<g >
<title>time.now (7 samples, 1.15%)</title><rect x="1176.5" y="245" width="13.5" height="15.0" fill="rgb(251,220,34)" rx="2" ry="2" />
<text  x="1179.46" y="255.5" ></text>
</g>
<g >
<title>runtime.mstart (173 samples, 28.36%)</title><rect x="73.8" y="245" width="334.7" height="15.0" fill="rgb(241,181,18)" rx="2" ry="2" />
<text  x="76.84" y="255.5" >runtime.mstart</text>
</g>
<g >
<title>runtime.gopreempt_m (1 samples, 0.16%)</title><rect x="71.9" y="213" width="1.9" height="15.0" fill="rgb(235,13,41)" rx="2" ry="2" />
<text  x="74.90" y="223.5" ></text>
</g>
<g >
<title>runtime.adjustframe (1 samples, 0.16%)</title><rect x="70.0" y="181" width="1.9" height="15.0" fill="rgb(222,109,12)" rx="2" ry="2" />
<text  x="72.97" y="191.5" ></text>
</g>
<g >
<title>runtime.lock (4 samples, 0.66%)</title><rect x="93.2" y="197" width="7.7" height="15.0" fill="rgb(205,76,50)" rx="2" ry="2" />
<text  x="96.18" y="207.5" ></text>
</g>
<g >
<title>runtime.findrunnable (9 samples, 1.48%)</title><rect x="48.7" y="197" width="17.4" height="15.0" fill="rgb(248,51,24)" rx="2" ry="2" />
<text  x="51.69" y="207.5" ></text>
</g>
<g >
<title>runtime.acquirep1 (4 samples, 0.66%)</title><rect x="540.0" y="117" width="7.8" height="15.0" fill="rgb(225,161,5)" rx="2" ry="2" />
<text  x="543.03" y="127.5" ></text>
</g>
<g >
<title>fmt.Sprint (2 samples, 0.33%)</title><rect x="13.9" y="133" width="3.8" height="15.0" fill="rgb(205,13,5)" rx="2" ry="2" />
<text  x="16.87" y="143.5" ></text>
</g>
<g >
<title>runtime.casgstatus (1 samples, 0.16%)</title><rect x="66.1" y="213" width="1.9" height="15.0" fill="rgb(243,185,15)" rx="2" ry="2" />
<text  x="69.10" y="223.5" ></text>
</g>
<g >
<title>fmt.(*pp).printArg (1 samples, 0.16%)</title><rect x="13.9" y="101" width="1.9" height="15.0" fill="rgb(241,58,28)" rx="2" ry="2" />
<text  x="16.87" y="111.5" ></text>
</g>
<g >
<title>time.Now (5 samples, 0.82%)</title><rect x="1166.8" y="213" width="9.7" height="15.0" fill="rgb(220,141,5)" rx="2" ry="2" />
<text  x="1169.79" y="223.5" ></text>
</g>
<g >
<title>runtime.key32 (1 samples, 0.16%)</title><rect x="271.1" y="165" width="2.0" height="15.0" fill="rgb(239,10,44)" rx="2" ry="2" />
<text  x="274.15" y="175.5" ></text>
</g>
<g >
<title>runtime.futexsleep (3 samples, 0.49%)</title><rect x="60.3" y="149" width="5.8" height="15.0" fill="rgb(225,34,18)" rx="2" ry="2" />
<text  x="63.30" y="159.5" ></text>
</g>
<g >
<title>runtime.lock (1 samples, 0.16%)</title><rect x="278.9" y="181" width="1.9" height="15.0" fill="rgb(214,133,8)" rx="2" ry="2" />
<text  x="281.89" y="191.5" ></text>
</g>
<g >
<title>time.sendTime (17 samples, 2.79%)</title><rect x="1143.6" y="229" width="32.9" height="15.0" fill="rgb(242,161,48)" rx="2" ry="2" />
<text  x="1146.57" y="239.5" >ti..</text>
</g>
<g >
<title>runtime.acquirep (1 samples, 0.16%)</title><rect x="54.5" y="165" width="1.9" height="15.0" fill="rgb(239,61,50)" rx="2" ry="2" />
<text  x="57.49" y="175.5" ></text>
</g>
<g >
<title>go.lixinio.com/dos/trace-subscriber/vendor/golang.org/x/sync/errgroup.(*Group).Go.func1 (9 samples, 1.48%)</title><rect x="10.0" y="245" width="17.4" height="15.0" fill="rgb(223,158,6)" rx="2" ry="2" />
<text  x="13.00" y="255.5" ></text>
</g>
<g >
<title>go.lixinio.com/dos/trace-subscriber/vendor/gocloud.dev/internal/oc.(*Tracer).Start (1 samples, 0.16%)</title><rect x="10.0" y="165" width="1.9" height="15.0" fill="rgb(254,113,3)" rx="2" ry="2" />
<text  x="13.00" y="175.5" ></text>
</g>
<g >
<title>runtime.futex (3 samples, 0.49%)</title><rect x="60.3" y="133" width="5.8" height="15.0" fill="rgb(216,68,18)" rx="2" ry="2" />
<text  x="63.30" y="143.5" ></text>
</g>
<g >
<title>runtime.notesleep (5 samples, 0.82%)</title><rect x="56.4" y="165" width="9.7" height="15.0" fill="rgb(212,54,19)" rx="2" ry="2" />
<text  x="59.43" y="175.5" ></text>
</g>
<g >
<title>runtime.notetsleep (89 samples, 14.59%)</title><rect x="100.9" y="197" width="172.2" height="15.0" fill="rgb(217,205,44)" rx="2" ry="2" />
<text  x="103.92" y="207.5" >runtime.notetsleep</text>
</g>
<g >
<title>runtime.casgstatus (4 samples, 0.66%)</title><rect x="524.6" y="197" width="7.7" height="15.0" fill="rgb(245,66,33)" rx="2" ry="2" />
<text  x="527.56" y="207.5" ></text>
</g>
<g >
<title>go.lixinio.com/dos/trace-subscriber/vendor/gocloud.dev/pubsub.(*Subscription).getNextBatch.func1 (9 samples, 1.48%)</title><rect x="10.0" y="229" width="17.4" height="15.0" fill="rgb(224,64,20)" rx="2" ry="2" />
<text  x="13.00" y="239.5" ></text>
</g>
<g >
<title>runtime.futexwakeup (1 samples, 0.16%)</title><rect x="752.8" y="117" width="2.0" height="15.0" fill="rgb(236,119,11)" rx="2" ry="2" />
<text  x="755.82" y="127.5" ></text>
</g>
<g >
<title>runtime.notetsleep_internal (9 samples, 1.48%)</title><rect x="408.5" y="245" width="17.4" height="15.0" fill="rgb(213,33,42)" rx="2" ry="2" />
<text  x="411.49" y="255.5" ></text>
</g>
<g >
<title>sync.(*RWMutex).RLock (1 samples, 0.16%)</title><rect x="10.0" y="101" width="1.9" height="15.0" fill="rgb(224,189,18)" rx="2" ry="2" />
<text  x="13.00" y="111.5" ></text>
</g>
<g >
<title>runtime.retake (4 samples, 0.66%)</title><rect x="273.1" y="197" width="7.7" height="15.0" fill="rgb(241,146,46)" rx="2" ry="2" />
<text  x="276.08" y="207.5" ></text>
</g>
<g >
<title>go.lixinio.com/dos/trace-subscriber/vendor/go.opencensus.io/tag.checkValue (1 samples, 0.16%)</title><rect x="19.7" y="101" width="1.9" height="15.0" fill="rgb(228,173,36)" rx="2" ry="2" />
<text  x="22.67" y="111.5" ></text>
</g>
<g >
<title>runtime.park_m (9 samples, 1.48%)</title><rect x="48.7" y="229" width="17.4" height="15.0" fill="rgb(220,157,26)" rx="2" ry="2" />
<text  x="51.69" y="239.5" ></text>
</g>
<g >
<title>runtime.key32 (1 samples, 0.16%)</title><rect x="470.4" y="213" width="1.9" height="15.0" fill="rgb(217,145,5)" rx="2" ry="2" />
<text  x="473.39" y="223.5" ></text>
</g>
<g >
<title>runtime.usleep (66 samples, 10.82%)</title><rect x="280.8" y="197" width="127.7" height="15.0" fill="rgb(243,58,21)" rx="2" ry="2" />
<text  x="283.82" y="207.5" >runtime.usleep</text>
</g>
<g >
<title>runtime.unlock (3 samples, 0.49%)</title><rect x="1137.8" y="229" width="5.8" height="15.0" fill="rgb(223,167,53)" rx="2" ry="2" />
<text  x="1140.77" y="239.5" ></text>
</g>
<g >
<title>runtime.copystack (2 samples, 0.33%)</title><rect x="68.0" y="213" width="3.9" height="15.0" fill="rgb(215,6,30)" rx="2" ry="2" />
<text  x="71.03" y="223.5" ></text>
</g>
<g >
<title>runtime.scanblock (1 samples, 0.16%)</title><rect x="44.8" y="69" width="2.0" height="15.0" fill="rgb(207,224,2)" rx="2" ry="2" />
<text  x="47.82" y="79.5" ></text>
</g>
</g>
</svg>
